
<svg xmlns="http://www.w3.org/2000/svg" version="1.1" xmlns:xlink="http://www.w3.org/1999/xlink" preserveAspectRatio="none" x="0px" y="0px" width="1920px" height="1080px" viewBox="0 0 1920 1080">
<defs>
<g id="Layer0_0_FILL">
<path fill="#FFFFFF" stroke="none" d="
M 322.45 417.5
L 323.5 517 322.45 646.65
Q 322.45 662.6 332.8 672.55 336.3 676.1 340.3 678.3 347.35 682.05 355.9 682.05 375.95 682.05 388.25 663.4 414.45 621.55 504.3 460.2 508.85 453.3 510.3 453.3 512.6 453.3 512.6 474.05
L 510.3 663.4
Q 510.3 680.75 531.5 680.75 540.2 681.25 546.5 676.8 553.1 671.6 553.1 662.95
L 552.05 553.35 553.1 433.85
Q 553.1 415.55 543.7 405.8 535.25 397.1 522.1 397.1 497.95 397.1 485.3 417.5 475.8 431.95 430.05 513.35 386.65 590.2 370.9 613.8 367.4 618.85 365.75 618.85 363.05 618.85 363.05 603.25
L 365.3 416.6
Q 365.3 407.55 358.7 402.05 352.35 397.1 344.05 397.1 342.05 397.1 340.3 397.45 333.25 398.3 328.55 402.75 322.2 408.35 322.45 417.5
M 299.6 416.6
Q 299.6 407.55 292.9 402.05 286.7 397.1 278.45 397.1 269.65 397.1 263.45 402.05 256.75 407.8 256.75 417.05
L 256.75 513.6
Q 256.75 523.45 254.55 528.05 247.85 541.75 226.5 551.35 205.75 560.05 182.15 560.05 145.45 560.05 130.75 539.75 124.55 531.1 124.55 508.45
L 125.25 415.9
Q 125.25 407.1 119.05 401.9 113.15 397.1 104.95 397.1 95.95 397.1 89.7 402.25 82.55 407.8 82.55 417.5
L 81.75 473.5
Q 81.75 512.65 84.8 532 89 556.4 100.75 570.75 123.6 598.65 176.05 598.65 200 598.65 221.55 593 242.45 587.05 253 578.6 253.85 578 255.25 577.55 256.75 577.55 256.75 580.95
L 256.75 662.95
Q 256.75 680.55 278.45 681.25 286.8 681.25 292.9 676.8 299.6 671.6 299.6 662.95
L 298.65 525.1 299.6 416.6
M 845.55 407.8
Q 835.1 397.1 820.2 397.1 792.2 397.1 781.75 427.95 736.9 575.3 723.2 608.4 722 611.9 720.05 611.9 717.9 611.9 716.15 608.4 710.9 597.5 690.1 528.85
L 660.2 429.85
Q 650.25 397.7 622.3 397.7 608.45 397.7 598.4 408.15 587.35 419.65 586.3 439.35 574.55 600.65 572 663.65
L 572 664.35
Q 572 681.25 591.9 681.25 600.7 681.25 606.8 676.8 614 671.4 614.2 662.6 619.25 526.15 623.95 464.9 625 454 628.05 454 630.5 454 633 461.15
L 662.8 562.3
Q 684.35 635 691.5 651.8 699.95 672.55 718.4 672.55 727.75 672.55 735.85 666.7 744.3 660.6 747.85 651.55 758.4 623.4 781.4 551.95
L 809.4 459.15
Q 811.55 451.4 815.15 451.4 818.45 451.4 818.45 460.2 822.1 609.2 825.85 661.65 826.3 671.05 833.35 676.55 839.55 681.25 848.25 681.25 856.95 681.25 863.15 676.3 869.85 670.9 869.85 661.65
L 869.85 660.35
Q 857.65 443.35 857.65 437.95 857.15 419.05 845.55 407.8
M 905.25 483.35
Q 913.35 482.4 918.5 475.95 922.65 470.55 927.8 465.5 958.5 434.75 1002.05 434.75 1045.55 434.75 1076.3 465.5 1093.2 482.4 1100.8 503.15 1101.2 504.1 1101.55 505.25 1102.6 508.2 1103.4 511.15 1104.25 517.35 1099.2 518.55
L 939.85 518.55
Q 931.65 518.55 925.8 524.25 920.05 530.15 920.05 538.35 920.05 546.7 925.8 552.45 931.65 558.3 939.85 558.3
L 1096.6 558.3
Q 1104.95 558.75 1104.1 565.7 1097.55 592.9 1076.3 614.15 1045.55 644.85 1002.05 644.85 958.5 644.85 927.8 614.15 926.25 612.6 924.85 610.95
L 924.6 610.95
Q 922.85 608.95 921.2 607 915.8 600.65 907.6 599.95 899.5 599.25 893.2 604.65 886.85 609.9 886.15 618.1 885.45 626.2 890.85 632.55 892.95 635.25 895.55 637.95 895.55 638.05 895.65 638.05 897.5 640.2 899.65 642.3 942.1 684.65 1002.05 684.65 1062 684.65 1104.45 642.3 1146.95 599.8 1146.95 539.75 1146.95 479.8 1104.45 437.45 1062 395 1002.05 395 942.1 395 899.65 437.45 892.95 444.15 887.2 451.3 882.15 457.9 883.1 465.95 884.05 474.2 890.6 479.25 897.05 484.25 905.25 483.35
M 1338.6 417.65
Q 1338.6 417.3 1338.6 416.8 1338.6 398.3 1317.95 397.25
L 1212.5 397.25
Q 1203.8 397.7 1196.45 399.55 1163.45 407.65 1162.05 444.05 1161.25 619.05 1160.75 658.5
L 1160.75 658.7
Q 1160.75 668.9 1167.35 675.15 1173.2 680.55 1181.9 680.55 1190.9 680.55 1197 674.3 1203.8 667.5 1203.7 655.9
L 1202.3 566.75 1203.8 454.1
Q 1204.55 442.4 1213.55 439.7 1220.85 437.45 1251.9 437.45
L 1316.45 437.8
Q 1327 437.8 1333 431.35 1337.3 426.8 1338.4 420.55 1338.5 419.15 1338.6 417.65
M 1529.95 465.5
Q 1560.8 496.35 1560.8 539.75 1560.8 583.3 1529.95 614.15 1499.2 644.85 1455.7 644.85 1412.3 644.85 1381.45 614.15 1379.9 612.6 1378.5 610.95
L 1378.4 610.95
Q 1376.5 608.95 1374.85 607 1369.45 600.65 1361.35 599.95 1353.15 599.25 1346.95 604.65 1340.6 609.9 1339.8 618.1 1339.1 626.2 1344.5 632.55 1346.7 635.25 1349.3 637.95
L 1349.3 638.05
Q 1351.3 640.2 1353.3 642.3 1395.75 684.65 1455.7 684.65 1515.75 684.65 1558.1 642.3 1600.55 599.8 1600.55 539.75 1600.55 479.8 1558.1 437.45 1515.75 395 1455.7 395 1395.75 395 1353.3 437.45 1346.6 444.15 1340.95 451.3 1335.9 457.9 1336.85 465.95 1337.8 474.2 1344.35 479.25 1350.7 484.25 1358.9 483.35 1367.1 482.4 1372.15 475.95 1376.4 470.55 1381.45 465.5 1412.3 434.75 1455.7 434.75 1499.2 434.75 1529.95 465.5 Z"/>

<path fill="#03A0FF" stroke="none" d="
M 1649.75 439.1
Q 1642 436.15 1634.5 439.7 1626.95 443.2 1624.15 450.85 1621.35 458.6 1624.75 466.1 1640.45 499.85 1640.45 539.9 1640.45 582.25 1623.2 617.55 1619.45 624.95 1622.25 632.8 1624.85 640.4 1632.35 644.05 1639.65 647.8 1647.5 645.1 1655.25 642.4 1658.9 635 1680.1 591.75 1680.25 539.9 1680.1 490.85 1660.85 449.45 1657.45 441.9 1649.75 439.1
M 1732.9 414.1
Q 1731.5 411.2 1730.1 408.25 1726.55 400.85 1718.8 398.05 1711.1 395.25 1703.7 398.85 1696.2 402.4 1693.5 410.15 1690.65 417.85 1694.2 425.4 1695.6 428.3 1697 431.25
L 1696.9 430.9
Q 1719.55 480.75 1719.55 539.9 1719.55 598.3 1697.6 647.45
L 1697.6 647.55
Q 1695.95 651.1 1694.4 654.5 1693.85 655.55 1693.35 656.6 1689.75 664 1692.3 671.75 1694.9 679.5 1702.3 683.25 1709.55 686.85 1717.4 684.3 1725.15 681.6 1728.9 674.3 1729.6 673.05 1730.3 671.75 1730.3 671.4 1730.55 671.15 1732.2 667.5 1733.85 664
L 1733.85 663.9
Q 1759.2 607.2 1759.3 539.9 1759.2 471.7 1733 414.45
L 1732.9 414.1
M 1490.9 539.9
Q 1490.9 525.35 1480.55 515 1470.25 504.7 1455.8 504.7 1441.25 504.7 1430.95 515
L 1430.95 515.1
Q 1420.6 525.35 1420.6 539.9 1420.6 554.4 1430.95 564.65 1441.25 574.95 1455.8 574.95 1470.25 574.95 1480.55 564.65 1490.9 554.4 1490.9 539.9
M 1773.15 357.8
Q 1765.5 361 1762.35 368.6 1759.2 376.1 1762.35 383.75 1763.05 385.4 1763.85 386.9
L 1764.2 387.6
Q 1768 395.1 1771.4 402.75 1799.2 465.85 1799.05 540.35 1799.2 619.75 1767.75 686.15 1765.05 691.7 1762.35 697.3 1758.45 704.6 1760.95 712.45 1763.5 720.2 1770.8 724.05 1778.05 727.8 1785.9 725.35 1793.8 722.75 1797.55 715.6 1800.7 709.4 1803.65 703.2 1803.65 703.05 1803.75 703.05 1838.7 629.05 1838.85 540.35 1838.7 457.15 1807.75 386.8
L 1807.75 386.65
Q 1803.75 377.65 1799.3 368.95 1799.2 368.6 1798.95 368.25 1795.8 360.85 1788.25 357.8 1780.75 354.65 1773.15 357.8 Z"/>
</g>
</defs>

<g transform="matrix( 1, 0, 0, 1, 0,0) ">
<use xlink:href="#Layer0_0_FILL"/>
</g>
</svg>
