<?xml version="1.0" encoding="UTF-8"?>
<!DOCTYPE svg PUBLIC "-//W3C//DTD SVG 1.1//EN" "http://www.w3.org/Graphics/SVG/1.1/DTD/svg11.dtd">
<!-- Creator: CorelDRAW 2017 -->
<svg xmlns="http://www.w3.org/2000/svg" xml:space="preserve" width="591.436mm" height="200mm" version="1.1" style="shape-rendering:geometricPrecision; text-rendering:geometricPrecision; image-rendering:optimizeQuality; fill-rule:evenodd; clip-rule:evenodd"
viewBox="0 0 41713 14106"
 xmlns:xlink="http://www.w3.org/1999/xlink">
 <defs>
  <style type="text/css">
   <![CDATA[
    .fil2 {fill:#2B2A29}
    .fil3 {fill:#EBECEC;fill-rule:nonzero}
    .fil0 {fill:#2B2A29;fill-rule:nonzero}
    .fil1 {fill:url(#id0)}
   ]]>
  </style>
  <linearGradient id="id0" gradientUnits="userSpaceOnUse" x1="0" y1="7053" x2="14105" y2="7053">
   <stop offset="0" style="stop-opacity:1; stop-color:#A774E8"/>
   <stop offset="1" style="stop-opacity:1; stop-color:#7725DF"/>
  </linearGradient>
 </defs>
 <g id="Layer_x0020_1">
  <metadata id="CorelCorpID_0Corel-Layer"/>
  <path class="fil0" d="M20127 6497l-44 504c-278,83 -578,124 -905,124 -774,0 -1356,-212 -1745,-636 -389,-424 -584,-942 -584,-1554 0,-642 218,-1195 651,-1659 434,-465 1019,-697 1752,-697 203,0 416,30 642,91l-95 537c-259,-82 -490,-122 -692,-122 -545,0 -958,169 -1239,507 -281,338 -422,750 -422,1239 0,498 161,924 485,1279 325,356 772,534 1345,534 218,0 501,-48 850,-145z"/>
  <path id="1" class="fil0" d="M23617 7034l-614 0c50,-592 74,-1228 74,-1910 0,-365 -68,-611 -204,-737 -136,-128 -325,-191 -566,-191 -338,0 -653,116 -948,348 0,1228 9,2059 28,2491l-595 0c21,-594 30,-1433 30,-2519 0,-949 -32,-1692 -98,-2231l642 -33c-18,686 -27,1323 -27,1910l20 0c338,-297 707,-446 1111,-446 361,0 642,84 844,251 202,168 303,462 303,883 0,44 -2,127 -7,252 -5,124 -7,234 -7,328 0,325 5,858 14,1604z"/>
  <path id="2" class="fil0" d="M25112 7034l-611 0c31,-451 47,-964 47,-1543 0,-650 -39,-1196 -119,-1637l675 -91c-27,470 -40,1046 -40,1728 0,540 16,1054 47,1543zm142 -4219c0,114 -37,214 -112,298 -74,84 -179,127 -313,127 -115,0 -204,-37 -268,-109 -65,-74 -97,-161 -97,-265 0,-113 39,-211 115,-294 76,-83 182,-124 317,-124 111,0 198,36 263,109 63,73 96,159 96,258z"/>
  <path id="3" class="fil0" d="M30246 5080c0,-361 -62,-598 -187,-714 -126,-116 -331,-174 -616,-174 -241,0 -490,119 -745,355 -9,274 -14,543 -14,807 0,376 7,936 21,1681l-615 0c50,-642 75,-1293 75,-1954 0,-361 -62,-598 -188,-714 -124,-116 -325,-174 -599,-174 -281,0 -544,119 -789,355 0,713 5,1543 13,2488l-614 0c43,-765 65,-1319 65,-1660 0,-521 -51,-1031 -152,-1534l595 -84 60 409 35 0c293,-300 617,-449 975,-449 533,0 877,150 1030,449l37 0c340,-300 675,-449 1006,-449 378,0 664,83 857,250 194,166 290,460 290,881 0,43 -2,127 -7,252 -5,127 -6,211 -6,254 0,376 3,936 13,1681l-614 0c52,-590 77,-1241 77,-1954z"/>
  <path id="4" class="fil0" d="M34436 5052c0,94 -5,226 -14,392l-2318 40c22,328 150,604 381,826 232,221 538,332 922,332 341,0 662,-41 961,-124l-57 476c-221,88 -539,131 -955,131 -585,0 -1031,-160 -1339,-479 -308,-319 -461,-709 -461,-1168 0,-490 141,-913 420,-1267 280,-354 657,-531 1129,-531 434,0 764,128 991,385 226,256 339,587 339,989zm-563 7c0,-633 -265,-948 -794,-948 -539,0 -858,328 -955,985l1749 -37z"/>
  <path id="5" class="fil0" d="M38389 3403l-54 465c-418,0 -650,67 -692,203l0 33c144,175 217,376 217,600 0,351 -115,642 -347,870 -230,228 -586,342 -1068,342 -213,0 -384,-22 -509,-67 -111,78 -166,176 -166,294 0,144 66,240 196,287 167,62 514,94 1043,94 856,0 1284,283 1284,850 0,404 -167,740 -500,1006 -333,265 -764,399 -1293,399 -543,0 -929,-99 -1159,-296 -231,-197 -347,-433 -347,-710 0,-252 58,-455 170,-608 114,-153 256,-248 424,-284l0 -30c-177,-85 -266,-250 -266,-493 0,-220 112,-414 338,-581l0 -27c-120,-59 -234,-158 -341,-297 -108,-139 -162,-313 -162,-520 0,-358 119,-650 355,-874 236,-225 578,-338 1025,-338 368,0 656,67 864,199l38 0c71,-380 260,-570 567,-570 166,0 295,16 385,51zm-605 4202c0,-211 -77,-361 -230,-447 -154,-86 -445,-130 -870,-130 -288,0 -551,-14 -789,-40 -275,133 -412,327 -412,584 0,548 361,824 1081,824 376,0 673,-74 893,-220 219,-146 328,-336 328,-570zm-469 -2761c0,-248 -78,-438 -235,-569 -156,-131 -355,-197 -596,-197 -227,0 -417,63 -570,190 -153,127 -229,308 -229,541 0,245 78,432 235,561 156,128 357,192 603,192 225,0 412,-63 565,-188 152,-124 228,-302 228,-531z"/>
  <path id="6" class="fil0" d="M41713 5052c0,94 -5,226 -14,392l-2318 40c22,328 150,604 381,826 232,221 538,332 922,332 341,0 662,-41 961,-124l-57 476c-221,88 -539,131 -955,131 -585,0 -1031,-160 -1339,-479 -308,-319 -461,-709 -461,-1168 0,-490 141,-913 420,-1267 280,-354 657,-531 1129,-531 434,0 764,128 991,385 226,256 339,587 339,989zm-563 7c0,-633 -265,-948 -794,-948 -539,0 -858,328 -955,985l1749 -37z"/>
  <path id="7" class="fil0" d="M22813 8433c0,210 -225,953 -675,2228 -451,1277 -675,1998 -675,2167l-891 0c0,-177 -137,-679 -409,-1502 -290,-881 -454,-1463 -490,-1744l-58 0c-36,283 -187,870 -452,1758 -248,831 -371,1326 -371,1489l-911 0c0,-212 -222,-964 -666,-2258 -442,-1294 -665,-2006 -665,-2137l1070 0c0,143 128,708 385,1695 257,989 385,1574 385,1759l54 0c0,-186 137,-760 411,-1727 274,-967 413,-1542 413,-1727l962 0c0,169 137,755 411,1757 274,1004 411,1568 411,1697l54 0c0,-162 124,-713 373,-1651 249,-938 373,-1539 373,-1803l959 0z"/>
  <path id="8" class="fil0" d="M25348 9622l-196 789c-167,-67 -335,-101 -507,-101 -331,0 -548,149 -655,446 0,897 7,1589 21,2073l-899 0c39,-678 58,-1231 58,-1660 0,-536 -56,-1044 -168,-1523l861 -94c38,248 58,393 58,435l53 0c207,-317 483,-476 827,-476 162,0 344,37 547,112z"/>
  <path id="9" class="fil0" d="M26742 12828l-908 0c32,-465 47,-1000 47,-1604 0,-598 -38,-1122 -114,-1573l971 -98c-29,437 -44,993 -44,1671 0,578 16,1113 47,1604zm156 -4226c0,153 -52,287 -157,402 -105,114 -251,172 -438,172 -157,0 -280,-50 -369,-149 -90,-99 -134,-218 -134,-357 0,-153 52,-286 157,-399 105,-113 251,-169 440,-169 160,0 283,50 370,147 86,98 130,215 130,353z"/>
  <path id="10" class="fil0" d="M29508 12197l-58 601c-158,67 -356,100 -595,101 -364,-1 -639,-99 -824,-297 -184,-198 -277,-580 -277,-1145 0,-339 2,-724 7,-1153 -115,0 -271,6 -465,20l23 -665c173,14 334,21 483,21 2,-120 12,-433 27,-942l801 -98c-35,448 -51,795 -51,1040 189,0 471,-9 847,-28l-27 672c-342,-14 -620,-20 -834,-20 -5,298 -7,613 -7,941 0,401 40,669 122,805 81,136 224,204 429,204 123,0 256,-20 399,-58z"/>
  <path id="11" class="fil0" d="M32947 10881c0,114 -7,264 -20,448l-2174 37c31,255 141,467 327,635 187,169 432,254 736,254 338,0 696,-51 1076,-152l-67 654c-311,113 -696,169 -1155,169 -581,0 -1025,-164 -1335,-490 -310,-326 -464,-719 -464,-1178 0,-479 147,-895 440,-1248 294,-353 702,-528 1225,-528 477,0 831,129 1062,388 233,258 348,595 348,1009zm-789 -31c0,-517 -221,-777 -663,-777 -421,0 -671,268 -749,804l1411 -28z"/>
  <path id="12" class="fil0" d="M35782 9622l-196 789c-167,-67 -335,-101 -507,-101 -331,0 -548,149 -655,446 0,897 7,1589 21,2073l-899 0c39,-678 58,-1231 58,-1660 0,-536 -56,-1044 -168,-1523l861 -94c38,248 58,393 58,435l53 0c207,-317 483,-476 827,-476 162,0 344,37 547,112z"/>
  <g id="_846806840">
   <path class="fil1" d="M2074 0l9957 0c1141,0 2074,933 2074,2074l0 9957c0,1141 -933,2074 -2074,2074l-9957 0c-1141,0 -2074,-933 -2074,-2074l0 -9957c0,-1141 933,-2074 2074,-2074z"/>
   <circle class="fil2" cx="7048" cy="7034" r="6016"/>
   <path class="fil3" d="M9803 4137c0,276 -260,1256 -782,2937 -522,1683 -782,2633 -782,2857l-1032 0c0,-234 -159,-895 -474,-1980 -336,-1162 -526,-1929 -567,-2299l-67 0c-41,374 -216,1147 -523,2318 -287,1095 -430,1748 -430,1962l-1056 0c0,-280 -258,-1271 -771,-2977 -512,-1706 -770,-2644 -770,-2817l1240 0c0,188 148,933 446,2234 298,1303 446,2075 446,2319l63 0c0,-245 159,-1002 476,-2277 318,-1274 478,-2032 478,-2277l1114 0c0,223 159,995 476,2316 318,1323 476,2067 476,2237l63 0c0,-214 144,-940 432,-2176 288,-1236 432,-2029 432,-2377l1110 0z"/>
   <path id="1" class="fil3" d="M12739 5704l-227 1040c-193,-88 -388,-134 -587,-134 -383,0 -635,196 -758,588 0,1183 8,2094 24,2732l-1041 0c45,-893 67,-1622 67,-2189 0,-706 -65,-1376 -195,-2008l997 -125c44,327 67,518 67,574l61 0c240,-418 559,-627 958,-627 188,0 399,49 634,147z"/>
  </g>
 </g>
</svg>
